<svg viewBox="0 0 1024 1024" xmlns="http://www.w3.org/2000/svg">
        <g id="Objects">
            <path d="M510.03 926.227c96.39-115.564 36.634-166.877 36.634-166.877l-35.533-.234-.337-.004-35.533-.234s-60.426 50.522 34.432 167.347l-.003.417c.058-.07.11-.14.17-.21.057.07.11.142.17.212v-.42.003z"
                  fill="#EAAB28"
                  id="rocket_exhaust"/>
            <g id="rocket_2_">
                <path d="M451.88 760.704l127.374-.878-.303-41.252-127.368.863.3 41.267z" fill="#BF372D"/>
                <path d="M510.408 543.044c-122.83.845-221.705 99.318-220.823 219.962.205 28.034 5.832 54.77 15.808 79.318 31.775-81.574 111.88-139.776 206.17-140.42 94.298-.64 175.247 56.452 208.183 137.582 9.63-24.673 14.863-51.482 14.67-79.52-.884-120.65-101.175-217.762-224.01-216.923h.002z"
                      fill="#284865"/>
                <path d="M568.405 708.864c69.05 17.382 125.26 66.41 151.342 130.62 9.63-24.672 14.863-51.48 14.67-79.52-.756-101.363-71.69-186.086-167.178-210.076l1.164 158.976z"
                      fill="#121D21"/>
                <path d="M372.475 472.916c.755 102.963 23.622 197.034 60.918 269.837 24.687-7.878 51.023-12.278 78.38-12.458 27.352-.188 53.743 3.84 78.562 11.382 36.198-73.3 57.697-167.672 56.94-270.628-1.19-163.554-58.102-304.79-140.133-373.69-81.024 70.018-135.868 212.003-134.67 375.556h.003z"
                      fill="#FCFCFC"/>
                <path d="M406.595 256.2c-3.932 10.773-6.093 18.912-6.093 18.912-.37.233 115.904-13.722 216.742.832 0 0-5.204-16.064-7.41-21.107-36.845-34.99-152.54-46.124-203.24 1.366v-.002z"
                      fill="#284865"/>
                <path d="M481.966 685.824c.495 68.023 12.915 126.825 30.618 155.622 17.277-29.03 28.844-88 28.344-156.024-.494-68.02-12.928-126.83-30.62-155.622-17.28 29.035-28.84 88.005-28.34 156.024h-.002z"
                      fill="#3C6075"/>
                <path d="M511.778 840.03c.282.456.538.972.806 1.415 17.277-29.03 28.844-88 28.344-156.024-.494-68.018-12.928-126.83-30.62-155.62-.257.45-.516.98-.79 1.417l2.262 308.813h-.002z"
                      fill="#121D21"/>
                <path d="M406.555 256.342c33.01-2.378 67.17-3.913 101.718-4.147 34.537-.234 68.526.695 101.56 2.64-24.74-67.11-60.403-121.957-102.694-157.48-41.774 36.102-76.823 91.547-100.583 158.986l-.002.002z"
                      fill="#DF642E"/>
                <path d="M511.627 252.198c33.37-.147 66.248.755 98.208 2.637-24.74-67.11-60.403-121.955-102.694-157.476-.75.65-1.477 1.298-2.224 1.96l6.71 152.88v-.002z"
                      fill="#BF372D"/>
                <path d="M502.976 252.524c33.37-.148 74.944.476 106.903 2.355-24.74-67.11-60.404-121.954-102.695-157.476-.75.65-1.478 1.3-2.225 1.962l-1.984 153.158z"
                      fill="#BF372D"/>
                <path d="M509.742 336.31h-.85c-16.256.105-31.514 6.438-42.952 17.83-11.44 11.392-17.68 26.458-17.562 42.42.243 32.547 27.405 59.207 60.538 59.43h.847c33.6-.23 60.736-27.27 60.493-60.266-.24-32.544-27.39-59.196-60.513-59.415z"
                      fill="#EAAB28"/>
                <path d="M508.996 350.848c-25.444.166-45.996 20.636-45.814 45.612.19 24.998 21.028 45.167 46.477 44.992 25.428-.174 45.98-20.627 45.795-45.624-.183-24.974-21.028-45.16-46.46-44.98z"
                      fill="#284865"/>
            </g>
        </g>
    </svg>